<?xml version="1.0"?>
<svg xmlns="http://www.w3.org/2000/svg" xmlns:xlink="http://www.w3.org/1999/xlink" xmlns:svgjs="http://svgjs.com/svgjs" version="1.1" width="512" height="512" x="0" y="0" viewBox="0 0 512 512" style="enable-background:new 0 0 512 512" xml:space="preserve" class=""><g><linearGradient xmlns="http://www.w3.org/2000/svg" id="linear-gradient" gradientUnits="userSpaceOnUse" x1="117.653" x2="469.817" y1="489.695" y2="137.531"><stop stop-opacity="1" stop-color="#41dfd0" offset="0.0032258064516129032"/><stop stop-opacity="1" stop-color="#14bf71" offset="0.6"/></linearGradient><path xmlns="http://www.w3.org/2000/svg" d="m425.281 134.332c-20.649-74.785-67.367-122.602-108.681-111.176-19.143 5.284-32.742 22.656-38.691 48.9l-16.6 20.712a219.452 219.452 0 0 1 -83.09 72.453l-5.4 2.656a80.487 80.487 0 0 0 -44.819 72.44v55.683a24.027 24.027 0 0 0 24 24h5.78a21.6 21.6 0 0 0 0 14.929h-29.78a8 8 0 0 0 -8 8v145.8a8 8 0 0 0 8 8h27.336a8 8 0 0 0 6.125-2.856l24.938-29.7h138.338l24.942 29.7a8 8 0 0 0 6.125 2.856h27.336a8 8 0 0 0 8-8v-145.8a8 8 0 0 0 -8-8h-24.475a23.147 23.147 0 0 0 1.335-7.467 23.493 23.493 0 0 0 -23.469-23.462h-34.01a23.711 23.711 0 0 0 1.479-8 24 24 0 1 0 -48 0 23.736 23.736 0 0 0 1.475 8h-17.475v-8a24.025 24.025 0 0 0 -24-24h-35.524v-34.836c8.508-.828 16.957-1.246 25.2-1.246a257.377 257.377 0 0 1 103.754 21.727l23.56 10.313c16.148 17.844 33.747 28.168 50.429 28.168a39.155 39.155 0 0 0 10.457-1.407c39.432-10.886 53.229-81.336 31.405-160.387zm-273.681 346.392h-15.6v-16.555h29.5zm223.539 0h-15.608l-13.9-16.555h29.509zm0-32.555h-239.139v-97.243h239.14zm-31.139-120.707a7.472 7.472 0 0 1 -7.465 7.464h-156.626a7.465 7.465 0 1 1 0-14.929h156.622a7.472 7.472 0 0 1 7.469 7.465zm-72-31.462a8 8 0 1 1 8 8 8.01 8.01 0 0 1 -8-8zm-48 0v8h-72a8.011 8.011 0 0 1 -8-8v-8h72a8.01 8.01 0 0 1 8 8zm-52.5-73.942a8 8 0 0 0 -7.024 7.942v42h-20.476v-31.68a64.561 64.561 0 0 1 35.934-58.106l5.4-2.656a234.638 234.638 0 0 0 88.829-77.27l.4-.5c-.365 21.459 2.966 45.619 10.077 71.372 7.282 26.373 17.494 49.841 29.309 69.068a271.525 271.525 0 0 0 -142.449-20.173zm218.117 57.242c-12.985 3.571-29.761-4.891-45.938-23.214-.149-.172-.293-.333-.457-.493-16.684-19.1-32.685-48.72-43.168-86.687-9.41-34.086-11.988-66.2-7.254-90.438 4.281-21.906 14.246-36.07 28.059-39.887a29.666 29.666 0 0 1 7.9-1.047c27.375 0 62.9 35.161 81.1 101.059 20.73 75.099 6.27 133.384-20.242 140.707zm-237.617 96.7v48a8 8 0 0 0 8 8h192a8 8 0 0 0 8-8v-48a8 8 0 0 0 -8-8h-192a8 8 0 0 0 -8 8zm16 8h176v32h-176z" fill="url(#linear-gradient)" data-original="url(#linear-gradient)" style="" class=""/></g></svg>
